<svg xmlns="http://www.w3.org/2000/svg" xmlns:xlink="http://www.w3.org/1999/xlink" width="500" zoomAndPan="magnify" viewBox="0 0 375 374.999991" height="500" preserveAspectRatio="xMidYMid meet" version="1.0"><rect x="-37.5" width="450" fill="#ffffff" y="-37.499999" height="449.999989" fill-opacity="1"/><rect x="-37.5" width="450" fill="#ffffff" y="-37.499999" height="449.999989" fill-opacity="1"/><path fill="#000000" d="M 76.058594 232.632812 C 79.253906 232.632812 80.429688 236.894531 77.550781 238.386719 C 73.820312 240.304688 69.875 241.371094 66.039062 241.371094 C 53.675781 241.371094 45.683594 234.339844 46.109375 222.613281 L 47.921875 179.128906 L 37.050781 175.082031 C 36.089844 174.761719 35.878906 173.480469 36.625 172.84375 L 46.003906 165.167969 L 46.003906 157.386719 C 46.003906 156.214844 46.640625 155.257812 47.707031 154.722656 L 59.003906 149.609375 C 60.925781 148.753906 63.054688 150.035156 63.054688 152.164062 L 63.054688 169.539062 L 75.417969 169.539062 C 76.378906 169.539062 77.230469 170.285156 77.230469 171.351562 L 77.230469 173.695312 C 77.230469 174.652344 76.484375 175.507812 75.417969 175.507812 L 63.054688 175.507812 L 63.054688 221.65625 C 63.054688 228.261719 68.066406 232.738281 75.84375 232.738281 C 75.84375 232.632812 75.953125 232.632812 76.058594 232.632812 Z M 76.058594 232.632812 " fill-opacity="1" fill-rule="nonzero"/><path fill="#000000" d="M 86.609375 203.21875 C 86.609375 182.859375 103.554688 166.128906 124.230469 166.128906 C 144.800781 166.128906 161.535156 182.859375 161.535156 203.109375 C 161.535156 224.105469 144.800781 241.265625 124.230469 241.265625 C 103.554688 241.371094 86.609375 224.214844 86.609375 203.21875 Z M 143.734375 203.324219 C 143.734375 181.046875 136.703125 168.367188 124.230469 168.367188 C 111.550781 168.367188 104.621094 180.621094 104.621094 203.324219 C 104.621094 226.238281 111.65625 239.132812 124.230469 239.132812 C 136.59375 239.132812 143.734375 226.453125 143.734375 203.324219 Z M 143.734375 203.324219 " fill-opacity="1" fill-rule="nonzero"/><path fill="#000000" d="M 286.871094 239.667969 L 260.332031 239.667969 C 259.054688 239.667969 258.628906 238.066406 259.585938 237.320312 C 263.210938 234.871094 265.449219 230.820312 265.449219 226.453125 L 265.449219 188.082031 C 265.449219 180.195312 260.121094 174.226562 253.40625 174.226562 C 248.503906 174.226562 242.640625 176.785156 236.992188 179.984375 C 237.527344 182.222656 237.953125 184.566406 237.953125 187.230469 L 237.953125 226.558594 C 237.953125 230.925781 240.082031 234.976562 243.707031 237.320312 C 244.773438 238.066406 244.238281 239.667969 242.960938 239.667969 L 216.101562 239.667969 C 214.824219 239.667969 214.398438 238.066406 215.464844 237.320312 C 219.195312 234.976562 221.433594 230.820312 221.433594 226.453125 L 221.433594 188.082031 C 221.433594 180.195312 216.101562 174.226562 209.496094 174.226562 C 204.699219 174.226562 199.261719 176.464844 193.933594 179.449219 L 193.933594 226.558594 C 193.933594 230.925781 196.171875 234.976562 199.796875 237.429688 C 200.863281 238.066406 200.328125 239.773438 199.050781 239.773438 L 172.40625 239.773438 C 171.125 239.773438 170.699219 238.175781 171.660156 237.429688 C 175.175781 234.976562 177.203125 231.035156 177.203125 226.769531 L 177.203125 182.113281 L 170.0625 179.023438 C 168.996094 178.597656 168.996094 177.105469 170.0625 176.570312 L 189.671875 167.9375 C 191.695312 167.085938 193.933594 168.472656 193.933594 170.710938 L 193.933594 177.105469 C 202.246094 171.777344 212.160156 166.128906 218.234375 166.128906 C 226.546875 166.128906 233.367188 170.710938 236.351562 178.171875 C 244.878906 172.523438 255.855469 166.128906 262.464844 166.128906 C 273.65625 166.128906 282.289062 174.546875 282.289062 187.125 L 282.289062 226.769531 C 282.289062 230.925781 284.3125 234.871094 287.722656 237.320312 C 288.683594 238.066406 288.152344 239.667969 286.871094 239.667969 Z M 286.871094 239.667969 " fill-opacity="1" fill-rule="nonzero"/><path fill="#000000" d="M 327.265625 239.667969 L 300.40625 239.667969 C 299.234375 239.667969 298.808594 238.175781 299.765625 237.535156 C 303.390625 234.976562 305.523438 230.925781 305.523438 226.558594 L 305.523438 186.058594 C 305.523438 183.5 304.03125 181.261719 301.6875 180.300781 L 298.277344 178.917969 C 297.316406 178.492188 297.316406 177.210938 298.277344 176.785156 L 318.097656 168.046875 C 320.125 167.191406 322.363281 168.578125 322.363281 170.816406 L 322.363281 226.453125 C 322.363281 230.925781 324.492188 234.976562 328.222656 237.535156 C 328.96875 238.175781 328.4375 239.667969 327.265625 239.667969 Z M 327.265625 239.667969 " fill-opacity="1" fill-rule="nonzero"/><path fill="#000000" d="M 312.984375 152.804688 C 307.761719 152.804688 303.496094 148.542969 303.496094 143.320312 L 303.496094 143.105469 C 303.496094 137.882812 307.761719 133.621094 312.984375 133.621094 C 318.207031 133.621094 322.46875 137.882812 322.46875 143.105469 L 322.46875 143.425781 C 322.46875 148.542969 318.207031 152.804688 312.984375 152.804688 Z M 312.984375 152.804688 " fill-opacity="1" fill-rule="nonzero"/></svg>