<svg xmlns="http://www.w3.org/2000/svg" xmlns:xlink="http://www.w3.org/1999/xlink" width="500" zoomAndPan="magnify" viewBox="0 0 375 374.999991" height="500" preserveAspectRatio="xMidYMid meet" version="1.0"><path fill="#000000" d="M 105.488281 178.429688 C 110.949219 178.429688 112.886719 185.472656 107.953125 187.941406 C 101.789062 191.109375 95.273438 192.871094 88.757812 192.871094 C 68.5 192.871094 55.113281 181.246094 55.816406 161.519531 L 58.8125 89.304688 L 40.847656 82.785156 C 39.261719 82.257812 38.910156 79.96875 40.316406 78.910156 L 55.996094 66.230469 L 55.996094 53.371094 C 55.996094 51.433594 57.050781 49.671875 58.8125 48.96875 L 77.660156 40.335938 C 80.652344 38.929688 84.175781 41.21875 84.175781 44.566406 L 84.175781 73.449219 L 104.433594 73.449219 C 106.015625 73.449219 107.425781 74.859375 107.425781 76.445312 L 107.425781 80.320312 C 107.425781 81.90625 106.015625 83.316406 104.433594 83.316406 L 84 83.316406 L 84 159.933594 C 84 170.855469 92.453125 178.429688 105.136719 178.429688 C 105.3125 178.429688 105.488281 178.429688 105.488281 178.429688 Z M 105.488281 178.429688 " fill-opacity="1" fill-rule="nonzero"/><path fill="#000000" d="M 123.277344 129.460938 C 123.277344 95.644531 151.460938 67.992188 185.808594 67.992188 C 220.152344 67.992188 247.808594 95.644531 247.808594 129.460938 C 247.808594 164.339844 220.152344 192.871094 185.808594 192.871094 C 151.460938 192.871094 123.277344 164.339844 123.277344 129.460938 Z M 218.039062 129.640625 C 218.039062 92.648438 206.414062 71.691406 185.632812 71.691406 C 164.671875 71.691406 153.046875 91.945312 153.046875 129.640625 C 153.046875 167.683594 164.671875 188.996094 185.632812 188.996094 C 206.238281 189.171875 218.039062 168.214844 218.039062 129.640625 Z M 218.039062 129.640625 " fill-opacity="1" fill-rule="nonzero"/><path fill="#000000" d="M 250.625 335.015625 L 206.589844 335.015625 C 204.476562 335.015625 203.773438 332.371094 205.359375 331.140625 C 211.347656 327.089844 215.046875 320.394531 215.046875 313.175781 L 215.046875 249.234375 C 215.046875 236.203125 206.238281 226.160156 194.964844 226.160156 C 186.863281 226.160156 177 230.390625 167.664062 235.671875 C 168.546875 239.371094 169.25 243.421875 169.25 247.828125 L 169.25 313.175781 C 169.25 320.394531 172.773438 327.089844 178.761719 331.140625 C 180.523438 332.371094 179.644531 335.015625 177.527344 335.015625 L 133.140625 335.015625 C 131.027344 335.015625 130.324219 332.195312 132.085938 331.140625 C 138.25 327.089844 141.949219 320.394531 141.949219 312.996094 L 141.949219 249.234375 C 141.949219 236.203125 133.140625 226.160156 122.222656 226.160156 C 114.296875 226.160156 105.136719 229.859375 96.328125 234.792969 L 96.328125 313.175781 C 96.328125 320.394531 100.027344 327.265625 106.015625 331.140625 C 107.777344 332.371094 106.898438 335.015625 104.785156 335.015625 L 60.574219 335.015625 C 58.460938 335.015625 57.753906 332.371094 59.339844 331.140625 C 65.152344 327.089844 68.5 320.570312 68.5 313.527344 L 68.5 239.371094 L 56.699219 234.089844 C 54.9375 233.382812 54.9375 230.917969 56.699219 230.039062 L 89.285156 215.769531 C 92.632812 214.359375 96.328125 216.652344 96.328125 220.347656 L 96.328125 230.917969 C 110.070312 222.109375 126.625 212.777344 136.664062 212.777344 C 150.402344 212.777344 161.851562 220.527344 166.785156 232.855469 C 181.050781 223.519531 199.195312 212.777344 210.113281 212.777344 C 228.785156 212.777344 243.050781 226.691406 243.050781 247.652344 L 243.050781 313.527344 C 243.050781 320.570312 246.398438 327.089844 252.035156 331.140625 C 253.621094 332.371094 252.738281 335.015625 250.625 335.015625 Z M 250.625 335.015625 " fill-opacity="1" fill-rule="nonzero"/><path fill="#000000" d="M 317.734375 335.015625 L 272.996094 335.015625 C 271.058594 335.015625 270.351562 332.550781 271.9375 331.492188 C 277.925781 327.265625 281.449219 320.570312 281.449219 313.175781 L 281.449219 246.066406 C 281.449219 241.839844 278.984375 238.140625 275.109375 236.378906 L 269.472656 234.089844 C 267.886719 233.382812 267.886719 231.269531 269.472656 230.566406 L 302.410156 216.121094 C 305.757812 214.714844 309.457031 217.003906 309.457031 220.703125 L 309.457031 312.996094 C 309.457031 320.394531 313.15625 327.265625 319.144531 331.316406 C 320.550781 332.550781 319.671875 335.015625 317.734375 335.015625 Z M 317.734375 335.015625 " fill-opacity="1" fill-rule="nonzero"/><path fill="#000000" d="M 293.957031 190.757812 C 285.324219 190.757812 278.28125 183.714844 278.28125 175.082031 L 278.28125 174.554688 C 278.28125 165.921875 285.324219 158.878906 293.957031 158.878906 C 302.585938 158.878906 309.632812 165.921875 309.632812 174.554688 L 309.632812 175.082031 C 309.632812 183.714844 302.585938 190.757812 293.957031 190.757812 Z M 293.957031 190.757812 " fill-opacity="1" fill-rule="nonzero"/></svg>