<svg xmlns="http://www.w3.org/2000/svg" xmlns:xlink="http://www.w3.org/1999/xlink" width="1350" zoomAndPan="magnify" viewBox="0 0 1012.5 809.999993" height="1080" preserveAspectRatio="xMidYMid meet" version="1.0"><path fill="#7d0000" d="M 305.078125 486.375 C 310.84375 486.375 312.957031 494.058594 307.769531 496.75 C 301.042969 500.207031 293.933594 502.128906 287.015625 502.128906 C 264.726562 502.128906 250.316406 489.449219 251.085938 468.3125 L 254.351562 389.914062 L 234.753906 382.613281 C 233.023438 382.035156 232.640625 379.730469 233.984375 378.578125 L 250.894531 364.742188 L 250.894531 350.714844 C 250.894531 348.601562 252.046875 346.871094 253.96875 345.910156 L 274.335938 336.6875 C 277.792969 335.152344 281.636719 337.457031 281.636719 341.300781 L 281.636719 372.621094 L 303.925781 372.621094 C 305.65625 372.621094 307.191406 373.964844 307.191406 375.886719 L 307.191406 380.113281 C 307.191406 381.84375 305.847656 383.382812 303.925781 383.382812 L 281.636719 383.382812 L 281.636719 466.582031 C 281.636719 478.496094 290.667969 486.566406 304.695312 486.566406 C 304.695312 486.375 304.886719 486.375 305.078125 486.375 Z M 305.078125 486.375 " fill-opacity="1" fill-rule="nonzero"/><path fill="#7d0000" d="M 324.101562 433.339844 C 324.101562 396.640625 354.652344 366.472656 391.929688 366.472656 C 429.015625 366.472656 459.183594 396.640625 459.183594 433.148438 C 459.183594 471.003906 429.015625 501.9375 391.929688 501.9375 C 354.652344 502.128906 324.101562 471.195312 324.101562 433.339844 Z M 427.09375 433.53125 C 427.09375 393.375 414.414062 370.507812 391.929688 370.507812 C 369.066406 370.507812 356.574219 392.605469 356.574219 433.53125 C 356.574219 474.84375 369.257812 498.09375 391.929688 498.09375 C 414.222656 498.09375 427.09375 475.230469 427.09375 433.53125 Z M 427.09375 433.53125 " fill-opacity="1" fill-rule="nonzero"/><path fill="#7d0000" d="M 685.152344 499.054688 L 637.308594 499.054688 C 635 499.054688 634.234375 496.171875 635.960938 494.828125 C 642.496094 490.410156 646.53125 483.109375 646.53125 475.230469 L 646.53125 406.054688 C 646.53125 391.835938 636.921875 381.074219 624.816406 381.074219 C 615.980469 381.074219 605.410156 385.6875 595.226562 391.453125 C 596.1875 395.488281 596.957031 399.714844 596.957031 404.519531 L 596.957031 475.421875 C 596.957031 483.300781 600.800781 490.601562 607.332031 494.828125 C 609.253906 496.171875 608.292969 499.054688 605.988281 499.054688 L 557.566406 499.054688 C 555.257812 499.054688 554.492188 496.171875 556.414062 494.828125 C 563.136719 490.601562 567.171875 483.109375 567.171875 475.230469 L 567.171875 406.054688 C 567.171875 391.835938 557.566406 381.074219 545.652344 381.074219 C 537.003906 381.074219 527.207031 385.109375 517.597656 390.492188 L 517.597656 475.421875 C 517.597656 483.300781 521.632812 490.601562 528.167969 495.019531 C 530.085938 496.171875 529.125 499.25 526.820312 499.25 L 478.785156 499.25 C 476.476562 499.25 475.710938 496.367188 477.4375 495.019531 C 483.78125 490.601562 487.429688 483.492188 487.429688 475.804688 L 487.429688 395.292969 L 474.554688 389.722656 C 472.632812 388.953125 472.632812 386.265625 474.554688 385.304688 L 509.910156 369.738281 C 513.5625 368.203125 517.597656 370.699219 517.597656 374.734375 L 517.597656 386.265625 C 532.585938 376.65625 550.457031 366.472656 561.40625 366.472656 C 576.394531 366.472656 588.695312 374.734375 594.074219 388.183594 C 609.445312 378 629.238281 366.472656 641.152344 366.472656 C 661.328125 366.472656 676.890625 381.652344 676.890625 404.324219 L 676.890625 475.804688 C 676.890625 483.300781 680.542969 490.410156 686.691406 494.828125 C 688.417969 496.171875 687.457031 499.054688 685.152344 499.054688 Z M 685.152344 499.054688 " fill-opacity="1" fill-rule="nonzero"/><path fill="#7d0000" d="M 757.976562 499.054688 L 709.554688 499.054688 C 707.441406 499.054688 706.675781 496.367188 708.402344 495.214844 C 714.9375 490.601562 718.777344 483.300781 718.777344 475.421875 L 718.777344 402.40625 C 718.777344 397.792969 716.089844 393.757812 711.863281 392.027344 L 705.714844 389.53125 C 703.984375 388.761719 703.984375 386.457031 705.714844 385.6875 L 741.453125 369.929688 C 745.105469 368.394531 749.140625 370.890625 749.140625 374.925781 L 749.140625 475.230469 C 749.140625 483.300781 752.980469 490.601562 759.707031 495.214844 C 761.050781 496.367188 760.089844 499.054688 757.976562 499.054688 Z M 757.976562 499.054688 " fill-opacity="1" fill-rule="nonzero"/><path fill="#7d0000" d="M 732.230469 342.453125 C 722.816406 342.453125 715.128906 334.765625 715.128906 325.351562 L 715.128906 324.96875 C 715.128906 315.550781 722.816406 307.867188 732.230469 307.867188 C 741.644531 307.867188 749.332031 315.550781 749.332031 324.96875 L 749.332031 325.542969 C 749.332031 334.765625 741.644531 342.453125 732.230469 342.453125 Z M 732.230469 342.453125 " fill-opacity="1" fill-rule="nonzero"/></svg>